<svg width="197" height="116" viewBox="0 0 197 116" fill="none" xmlns="http://www.w3.org/2000/svg">
<path d="M0 9C0 4.02944 4.02944 0 9 0H163C167.971 0 172 4.02944 172 9V42C172 46.9706 167.971 51 163 51H9C4.02944 51 0 46.9706 0 42V9Z" fill="white"/>
<circle cx="18" cy="25" r="7" fill="#2B2B2B"/>
<rect x="72" y="20" width="88" height="10" rx="5" fill="#2B2B2B"/>
<path d="M0 74C0 69.0294 4.02944 65 9 65H163C167.971 65 172 69.0294 172 74V107C172 111.971 167.971 116 163 116H9C4.02944 116 0 111.971 0 107V74Z" fill="white"/>
<circle cx="18" cy="90" r="7" fill="#2B2B2B"/>
<rect x="72" y="85" width="88" height="10" rx="5" fill="#2B2B2B"/>
<path d="M140.706 47.4799C140.346 47.2992 140.098 46.914 139.992 46.369C139.886 45.824 139.926 45.1416 140.108 44.4011C140.29 43.6606 140.606 42.8924 141.019 42.1857C141.432 41.479 141.926 40.8628 142.443 40.4088L181.391 10.4694C181.702 10.2092 182.008 10.0827 182.261 10.1108C182.513 10.1388 182.697 10.3197 182.781 10.6238C182.866 10.9279 182.846 11.3371 182.725 11.7842C182.605 12.2314 182.39 12.6899 182.117 13.0845L166.583 34.5524C166.177 35.0847 165.819 35.6979 165.54 36.3393C165.262 36.9808 165.071 37.6313 164.985 38.2352C164.898 38.8391 164.919 39.3782 165.044 39.8064C165.169 40.2345 165.396 40.5389 165.704 40.6935L179.004 47.4703C179.365 47.651 179.613 48.0362 179.719 48.5812C179.825 49.1262 179.784 49.8086 179.603 50.5491C179.421 51.2897 179.105 52.0579 178.692 52.7646C178.278 53.4713 177.785 54.0874 177.268 54.5415L138.32 84.4808C138.009 84.741 137.703 84.8675 137.45 84.8395C137.197 84.8114 137.014 84.6305 136.929 84.3264C136.845 84.0223 136.865 83.6131 136.985 83.166C137.106 82.7189 137.321 82.2604 137.594 81.8658L153.127 60.3978C153.534 59.8655 153.892 59.2523 154.17 58.6109C154.449 57.9695 154.639 57.3189 154.726 56.7151C154.812 56.1112 154.792 55.5721 154.667 55.1439C154.542 54.7157 154.315 54.4113 154.007 54.2567L140.706 47.4799Z" fill="#FFC42A" stroke="#FFDA7D" stroke-width="2" stroke-linecap="round" stroke-linejoin="round"/>
</svg>
